<mxfile host="app.diagrams.net" agent="Mozilla/5.0 (Windows NT 10.0; Win64; x64) AppleWebKit/537.36 (KHTML, like Gecko) Chrome/131.0.0.0 Safari/537.36 Edg/131.0.0.0" version="27.1.5">
  <diagram name="Seite-1" id="tFGu21yFLMaOvZvs3ClU">
    <mxGraphModel grid="1" page="1" gridSize="10" guides="1" tooltips="1" connect="1" arrows="1" fold="1" pageScale="1" pageWidth="827" pageHeight="1169" math="0" shadow="0">
      <root>
        <mxCell id="0" />
        <mxCell id="1" parent="0" />
        <mxCell id="E7hJQzO1tr-6ObaxlOSK-40" value="" style="rounded=1;whiteSpace=wrap;html=1;arcSize=5;fillColor=none;fontFamily=Helvetica;" vertex="1" parent="1">
          <mxGeometry x="80" y="600" width="550" height="250" as="geometry" />
        </mxCell>
        <mxCell id="E7hJQzO1tr-6ObaxlOSK-11" style="edgeStyle=orthogonalEdgeStyle;rounded=0;orthogonalLoop=1;jettySize=auto;html=1;exitX=0.5;exitY=1;exitDx=0;exitDy=0;entryX=0.5;entryY=0;entryDx=0;entryDy=0;fontFamily=Helvetica;" edge="1" parent="1" source="E7hJQzO1tr-6ObaxlOSK-1" target="E7hJQzO1tr-6ObaxlOSK-3">
          <mxGeometry relative="1" as="geometry" />
        </mxCell>
        <mxCell id="E7hJQzO1tr-6ObaxlOSK-12" value="R17 actualizes feature" style="edgeLabel;html=1;align=center;verticalAlign=middle;resizable=0;points=[];fontFamily=Helvetica;" connectable="0" vertex="1" parent="E7hJQzO1tr-6ObaxlOSK-11">
          <mxGeometry x="-0.0157" relative="1" as="geometry">
            <mxPoint x="-60" y="13" as="offset" />
          </mxGeometry>
        </mxCell>
        <mxCell id="E7hJQzO1tr-6ObaxlOSK-1" value="INT2 Actualization of Feature" style="rounded=1;html=1;perimeterSpacing=0;arcSize=50;whiteSpace=wrap;fontFamily=Helvetica;spacingTop=0;spacingBottom=0;spacing=2;fillColor=#dae8fc;strokeColor=#6c8ebf;fontSize=11.5;" vertex="1" parent="1">
          <mxGeometry x="470" y="360" width="120" height="60" as="geometry" />
        </mxCell>
        <mxCell id="E7hJQzO1tr-6ObaxlOSK-9" style="edgeStyle=orthogonalEdgeStyle;rounded=0;orthogonalLoop=1;jettySize=auto;html=1;exitX=1;exitY=0.5;exitDx=0;exitDy=0;entryX=0;entryY=0.5;entryDx=0;entryDy=0;fontFamily=Helvetica;" edge="1" parent="1" source="E7hJQzO1tr-6ObaxlOSK-4" target="E7hJQzO1tr-6ObaxlOSK-1">
          <mxGeometry relative="1" as="geometry">
            <mxPoint x="414" y="389.9999999999999" as="sourcePoint" />
          </mxGeometry>
        </mxCell>
        <mxCell id="E7hJQzO1tr-6ObaxlOSK-10" value="R18 shows actualization" style="edgeLabel;html=1;align=center;verticalAlign=middle;resizable=0;points=[];fontFamily=Helvetica;" connectable="0" vertex="1" parent="E7hJQzO1tr-6ObaxlOSK-9">
          <mxGeometry x="0.0447" y="1" relative="1" as="geometry">
            <mxPoint x="-15" y="21" as="offset" />
          </mxGeometry>
        </mxCell>
        <mxCell id="E7hJQzO1tr-6ObaxlOSK-3" value="INT4 Feature" style="rounded=1;html=1;perimeterSpacing=0;arcSize=50;whiteSpace=wrap;fontFamily=Helvetica;spacingTop=0;spacingBottom=0;spacing=2;fillColor=#dae8fc;strokeColor=#6c8ebf;fontSize=12;" vertex="1" parent="1">
          <mxGeometry x="470" y="510" width="120" height="60" as="geometry" />
        </mxCell>
        <mxCell id="E7hJQzO1tr-6ObaxlOSK-4" value="F2 Expression" style="rounded=1;html=1;perimeterSpacing=0;arcSize=50;whiteSpace=wrap;fontFamily=Helvetica;spacingTop=0;spacingBottom=0;spacing=2;fillColor=#fff2cc;strokeColor=#d6b656;fontSize=12;" vertex="1" parent="1">
          <mxGeometry x="110" y="360" width="120" height="60" as="geometry" />
        </mxCell>
        <mxCell id="E7hJQzO1tr-6ObaxlOSK-13" style="edgeStyle=orthogonalEdgeStyle;rounded=0;orthogonalLoop=1;jettySize=auto;html=1;exitX=0.5;exitY=1;exitDx=0;exitDy=0;entryX=0.5;entryY=0;entryDx=0;entryDy=0;fontFamily=Helvetica;" edge="1" parent="1" source="E7hJQzO1tr-6ObaxlOSK-15" target="E7hJQzO1tr-6ObaxlOSK-19">
          <mxGeometry relative="1" as="geometry" />
        </mxCell>
        <mxCell id="E7hJQzO1tr-6ObaxlOSK-14" value="R17 actualizes feature" style="edgeLabel;html=1;align=center;verticalAlign=middle;resizable=0;points=[];fontFamily=Helvetica;" connectable="0" vertex="1" parent="E7hJQzO1tr-6ObaxlOSK-13">
          <mxGeometry x="-0.0157" relative="1" as="geometry">
            <mxPoint x="-60" y="13" as="offset" />
          </mxGeometry>
        </mxCell>
        <mxCell id="E7hJQzO1tr-6ObaxlOSK-15" value="INT2 Actualization of Feature" style="rounded=1;html=1;perimeterSpacing=0;arcSize=50;whiteSpace=wrap;fontFamily=Helvetica;spacingTop=0;spacingBottom=0;spacing=2;fillColor=#dae8fc;strokeColor=#6c8ebf;fontSize=11.5;" vertex="1" parent="1">
          <mxGeometry x="474" y="617" width="120" height="60" as="geometry" />
        </mxCell>
        <mxCell id="E7hJQzO1tr-6ObaxlOSK-16" style="edgeStyle=orthogonalEdgeStyle;rounded=0;orthogonalLoop=1;jettySize=auto;html=1;exitX=1;exitY=0.5;exitDx=0;exitDy=0;entryX=0;entryY=0.5;entryDx=0;entryDy=0;fontFamily=Helvetica;" edge="1" parent="1" source="E7hJQzO1tr-6ObaxlOSK-18" target="E7hJQzO1tr-6ObaxlOSK-15">
          <mxGeometry relative="1" as="geometry" />
        </mxCell>
        <mxCell id="E7hJQzO1tr-6ObaxlOSK-17" value="R18 shows actualization" style="edgeLabel;html=1;align=center;verticalAlign=middle;resizable=0;points=[];fontFamily=Helvetica;" connectable="0" vertex="1" parent="E7hJQzO1tr-6ObaxlOSK-16">
          <mxGeometry x="0.0447" y="1" relative="1" as="geometry">
            <mxPoint x="-3" y="41" as="offset" />
          </mxGeometry>
        </mxCell>
        <mxCell id="E7hJQzO1tr-6ObaxlOSK-18" value="INT21 Text Passage" style="rounded=1;html=1;perimeterSpacing=0;arcSize=50;whiteSpace=wrap;fontFamily=Helvetica;spacingTop=0;spacingBottom=0;spacing=2;fillColor=#dae8fc;strokeColor=#6c8ebf;fontSize=12;" vertex="1" parent="1">
          <mxGeometry x="298" y="617" width="120" height="60" as="geometry" />
        </mxCell>
        <mxCell id="E7hJQzO1tr-6ObaxlOSK-19" value="INT4 Feature" style="rounded=1;html=1;perimeterSpacing=0;arcSize=50;whiteSpace=wrap;fontFamily=Helvetica;spacingTop=0;spacingBottom=0;spacing=2;fillColor=#dae8fc;strokeColor=#6c8ebf;fontSize=12;" vertex="1" parent="1">
          <mxGeometry x="474" y="767" width="120" height="60" as="geometry" />
        </mxCell>
        <mxCell id="E7hJQzO1tr-6ObaxlOSK-20" style="edgeStyle=orthogonalEdgeStyle;rounded=0;orthogonalLoop=1;jettySize=auto;html=1;exitX=1;exitY=0.5;exitDx=0;exitDy=0;entryX=0;entryY=0.5;entryDx=0;entryDy=0;fontFamily=Helvetica;" edge="1" parent="1" source="E7hJQzO1tr-6ObaxlOSK-22" target="E7hJQzO1tr-6ObaxlOSK-18">
          <mxGeometry relative="1" as="geometry" />
        </mxCell>
        <mxCell id="E7hJQzO1tr-6ObaxlOSK-21" value="R30 has text passage" style="edgeLabel;html=1;align=center;verticalAlign=middle;resizable=0;points=[];fontFamily=Helvetica;" connectable="0" vertex="1" parent="E7hJQzO1tr-6ObaxlOSK-20">
          <mxGeometry x="-0.0179" y="1" relative="1" as="geometry">
            <mxPoint x="-1" y="41" as="offset" />
          </mxGeometry>
        </mxCell>
        <mxCell id="E7hJQzO1tr-6ObaxlOSK-22" value="F2 Expression" style="rounded=1;html=1;perimeterSpacing=0;arcSize=50;whiteSpace=wrap;fontFamily=Helvetica;spacingTop=0;spacingBottom=0;spacing=2;fillColor=#fff2cc;strokeColor=#d6b656;fontSize=12;" vertex="1" parent="1">
          <mxGeometry x="114" y="617" width="120" height="60" as="geometry" />
        </mxCell>
        <mxCell id="E7hJQzO1tr-6ObaxlOSK-23" style="edgeStyle=orthogonalEdgeStyle;rounded=0;orthogonalLoop=1;jettySize=auto;html=1;exitX=0.5;exitY=1;exitDx=0;exitDy=0;entryX=0.5;entryY=0;entryDx=0;entryDy=0;fontFamily=Helvetica;" edge="1" parent="1" source="E7hJQzO1tr-6ObaxlOSK-25" target="E7hJQzO1tr-6ObaxlOSK-29">
          <mxGeometry relative="1" as="geometry" />
        </mxCell>
        <mxCell id="E7hJQzO1tr-6ObaxlOSK-24" value="R17 actualizes feature" style="edgeLabel;html=1;align=center;verticalAlign=middle;resizable=0;points=[];fontFamily=Helvetica;" connectable="0" vertex="1" parent="E7hJQzO1tr-6ObaxlOSK-23">
          <mxGeometry x="-0.0157" relative="1" as="geometry">
            <mxPoint x="-60" y="9" as="offset" />
          </mxGeometry>
        </mxCell>
        <mxCell id="E7hJQzO1tr-6ObaxlOSK-25" value="INT2 Actualization of Feature" style="rounded=1;html=1;perimeterSpacing=0;arcSize=50;whiteSpace=wrap;fontFamily=Helvetica;spacingTop=0;spacingBottom=0;spacing=2;fillColor=#dae8fc;strokeColor=#6c8ebf;fontSize=11.5;" vertex="1" parent="1">
          <mxGeometry x="478" y="880" width="120" height="60" as="geometry" />
        </mxCell>
        <mxCell id="E7hJQzO1tr-6ObaxlOSK-26" style="edgeStyle=orthogonalEdgeStyle;rounded=0;orthogonalLoop=1;jettySize=auto;html=1;exitX=1;exitY=0.5;exitDx=0;exitDy=0;entryX=0;entryY=0.5;entryDx=0;entryDy=0;fontFamily=Helvetica;" edge="1" parent="1" source="E7hJQzO1tr-6ObaxlOSK-33" target="E7hJQzO1tr-6ObaxlOSK-25">
          <mxGeometry relative="1" as="geometry">
            <mxPoint x="422" y="910" as="sourcePoint" />
          </mxGeometry>
        </mxCell>
        <mxCell id="E7hJQzO1tr-6ObaxlOSK-27" value="R18 shows actualization" style="edgeLabel;html=1;align=center;verticalAlign=middle;resizable=0;points=[];fontFamily=Helvetica;" connectable="0" vertex="1" parent="E7hJQzO1tr-6ObaxlOSK-26">
          <mxGeometry x="0.0447" y="1" relative="1" as="geometry">
            <mxPoint x="-3" y="41" as="offset" />
          </mxGeometry>
        </mxCell>
        <mxCell id="E7hJQzO1tr-6ObaxlOSK-29" value="INT4 Feature" style="rounded=1;html=1;perimeterSpacing=0;arcSize=50;whiteSpace=wrap;fontFamily=Helvetica;spacingTop=0;spacingBottom=0;spacing=2;fillColor=#dae8fc;strokeColor=#6c8ebf;fontSize=12;" vertex="1" parent="1">
          <mxGeometry x="478" y="1030" width="120" height="60" as="geometry" />
        </mxCell>
        <mxCell id="E7hJQzO1tr-6ObaxlOSK-30" style="edgeStyle=orthogonalEdgeStyle;rounded=0;orthogonalLoop=1;jettySize=auto;html=1;exitX=1;exitY=0.5;exitDx=0;exitDy=0;entryX=0;entryY=0.5;entryDx=0;entryDy=0;fontFamily=Helvetica;" edge="1" parent="1" source="E7hJQzO1tr-6ObaxlOSK-32" target="E7hJQzO1tr-6ObaxlOSK-33">
          <mxGeometry relative="1" as="geometry">
            <mxPoint x="302" y="910" as="targetPoint" />
          </mxGeometry>
        </mxCell>
        <mxCell id="E7hJQzO1tr-6ObaxlOSK-32" value="F2 Expression" style="rounded=1;html=1;perimeterSpacing=0;arcSize=50;whiteSpace=wrap;fontFamily=Helvetica;spacingTop=0;spacingBottom=0;spacing=2;fillColor=#fff2cc;strokeColor=#d6b656;fontSize=12;" vertex="1" parent="1">
          <mxGeometry x="118" y="880" width="120" height="60" as="geometry" />
        </mxCell>
        <mxCell id="E7hJQzO1tr-6ObaxlOSK-33" value="INT2 Actualization of Feature" style="rounded=1;html=1;perimeterSpacing=0;arcSize=50;whiteSpace=wrap;fontFamily=Helvetica;spacingTop=0;spacingBottom=0;spacing=2;fillColor=#dae8fc;strokeColor=#6c8ebf;fontSize=11.5;" vertex="1" parent="1">
          <mxGeometry x="298" y="880" width="120" height="60" as="geometry" />
        </mxCell>
        <mxCell id="E7hJQzO1tr-6ObaxlOSK-35" value="R18 shows actualization" style="edgeLabel;html=1;align=center;verticalAlign=middle;resizable=0;points=[];fontFamily=Helvetica;" connectable="0" vertex="1" parent="1">
          <mxGeometry x="260" y="950" as="geometry" />
        </mxCell>
        <mxCell id="E7hJQzO1tr-6ObaxlOSK-36" style="edgeStyle=orthogonalEdgeStyle;rounded=0;orthogonalLoop=1;jettySize=auto;html=1;entryX=0.5;entryY=0;entryDx=0;entryDy=0;exitX=0.5;exitY=1;exitDx=0;exitDy=0;fontFamily=Helvetica;" edge="1" parent="1" source="E7hJQzO1tr-6ObaxlOSK-33" target="E7hJQzO1tr-6ObaxlOSK-38">
          <mxGeometry relative="1" as="geometry">
            <mxPoint x="360" y="950" as="sourcePoint" />
          </mxGeometry>
        </mxCell>
        <mxCell id="E7hJQzO1tr-6ObaxlOSK-37" value="R17 actualizes feature" style="edgeLabel;html=1;align=center;verticalAlign=middle;resizable=0;points=[];fontFamily=Helvetica;" connectable="0" vertex="1" parent="E7hJQzO1tr-6ObaxlOSK-36">
          <mxGeometry x="-0.0157" relative="1" as="geometry">
            <mxPoint x="-60" y="9" as="offset" />
          </mxGeometry>
        </mxCell>
        <mxCell id="E7hJQzO1tr-6ObaxlOSK-38" value="INT4 Feature" style="rounded=1;html=1;perimeterSpacing=0;arcSize=50;whiteSpace=wrap;fontFamily=Helvetica;spacingTop=0;spacingBottom=0;spacing=2;fillColor=#dae8fc;strokeColor=#6c8ebf;fontSize=12;" vertex="1" parent="1">
          <mxGeometry x="298" y="1030" width="120" height="60" as="geometry" />
        </mxCell>
        <mxCell id="E7hJQzO1tr-6ObaxlOSK-39" value="" style="rounded=1;whiteSpace=wrap;html=1;arcSize=5;fillColor=none;fontFamily=Helvetica;" vertex="1" parent="1">
          <mxGeometry x="80" y="340" width="550" height="250" as="geometry" />
        </mxCell>
        <mxCell id="E7hJQzO1tr-6ObaxlOSK-41" value="" style="rounded=1;whiteSpace=wrap;html=1;arcSize=5;fillColor=none;fontFamily=Helvetica;" vertex="1" parent="1">
          <mxGeometry x="80" y="860" width="550" height="250" as="geometry" />
        </mxCell>
        <mxCell id="E7hJQzO1tr-6ObaxlOSK-42" value="a" style="ellipse;whiteSpace=wrap;html=1;aspect=fixed;fillColor=default;fontSize=14;fontFamily=Helvetica;" vertex="1" parent="1">
          <mxGeometry x="60" y="330" width="38" height="38" as="geometry" />
        </mxCell>
        <mxCell id="E7hJQzO1tr-6ObaxlOSK-43" value="b" style="ellipse;whiteSpace=wrap;html=1;aspect=fixed;fillColor=default;fontSize=14;fontFamily=Helvetica;" vertex="1" parent="1">
          <mxGeometry x="60" y="590" width="38" height="38" as="geometry" />
        </mxCell>
        <mxCell id="E7hJQzO1tr-6ObaxlOSK-44" value="c" style="ellipse;whiteSpace=wrap;html=1;aspect=fixed;fillColor=default;fontSize=14;fontFamily=Helvetica;" vertex="1" parent="1">
          <mxGeometry x="60" y="850" width="38" height="38" as="geometry" />
        </mxCell>
      </root>
    </mxGraphModel>
  </diagram>
</mxfile>
